<?xml version="1.0" ?>
<!-- Uploaded to: SVG Repo, www.svgrepo.com, Generator: SVG Repo Mixer Tools -->
<svg width="800px" height="800px" viewBox="0 0 64 64" xmlns="http://www.w3.org/2000/svg">
<defs>
<style>.cls-1{fill:#f0f4f7;}.cls-2{fill:#748a95;}.cls-3{fill:#dd5891;}.cls-4{fill:#e0e9ee;}.cls-5{fill:#d0e1e8;}.cls-6{fill:#617880;}.cls-7{fill:#d9387c;}</style>
</defs>
<g id="Car">
<path class="cls-1" d="M44.39,31.94h5a1.58,1.58,0,0,1,1.58,1.58v1.64l-3.29,2.08-4.9-2.14Z" id="rect66028-8"/>
<path class="cls-2" d="M56,42.18l-23.89-2.7L8,42.18v2.65a2.84,2.84,0,0,0,2.83,2.84H54.08A1.92,1.92,0,0,0,56,45.75Z" id="path53481-30-3"/>
<path class="cls-3" d="M45.94,35.1l-4.15-8.45a7.09,7.09,0,0,0-6.24-4.31H25.22c-2.89,0-5.23,1.83-6.71,4.31l-5,8.45L8,38.9v3.28H56V40.66a5.63,5.63,0,0,0-6.09-5.56h-.55l-1.71,1.62Z" id="path89747-6"/>
<path class="cls-4" d="M24.6,26.48A4.36,4.36,0,0,0,22,28.73l-4.25,7.14H41.69l-3.53-7.4c-.69-1.44-1.62-2.07-2.68-2.07H33.59Z" id="path59218-3-5"/>
<path class="cls-5" d="M33.59,26.4l-1.21,0a3.14,3.14,0,0,1,2.39,2l3.53,7.4h3.39l-3.53-7.4c-.69-1.44-1.62-2.07-2.68-2.07Z" id="path104187-3"/>
<path class="cls-4" d="M8,38.9h5.47V35.1H10.83A2.83,2.83,0,0,0,8,37.93Z" id="path89285-5"/>
<path class="cls-6" d="M24.77,47.67a5.49,5.49,0,1,1-5.48-5.49A5.48,5.48,0,0,1,24.77,47.67Z" id="path53485-4-6"/>
<path class="cls-6" d="M49.55,47.67a5.49,5.49,0,1,1-5.48-5.49A5.48,5.48,0,0,1,49.55,47.67Z" id="path53483-4-2"/>
<path class="cls-4" d="M46,47.67a2,2,0,1,1-2-2A2,2,0,0,1,46,47.67Z" id="path53475-6-9"/>
<path class="cls-4" d="M21.24,47.67a1.95,1.95,0,1,1-1.95-2A2,2,0,0,1,21.24,47.67Z" id="path53473-8-1"/>
<path class="cls-6" d="M52.82,42.18v3.57a1.92,1.92,0,0,1-1.92,1.92h3.18A1.92,1.92,0,0,0,56,45.75V42.18Z" id="path99153-2"/>
<path class="cls-7" d="M45.94,35.1l-4.15-8.45a7.09,7.09,0,0,0-6.24-4.31H32.37a7.09,7.09,0,0,1,6.24,4.31l4.14,8.45Zm3.42,0-.34.32c3.79,1.19,3.8,5.24,3.8,5.24v1.52H56V40.66a5.63,5.63,0,0,0-6.09-5.56Z" id="path99155-7"/>
<path class="cls-1" d="M49.36,35.1v2.57a1.71,1.71,0,1,1-3.42,0V35.1l1.62-.72Z" id="rect59345-0-0"/>
<path class="cls-1" d="M25.22,20.74A8.44,8.44,0,0,0,20.87,22a11.17,11.17,0,0,0-3.74,3.87,1.6,1.6,0,1,0,2.75,1.64,8,8,0,0,1,2.64-2.76,5,5,0,0,1,2-.72v4.38a1.51,1.51,0,0,0,3,0V27a1.51,1.51,0,1,1,3,0v4.22a1.51,1.51,0,1,0,3,0V23.94h2a1.6,1.6,0,0,0,0-3.2Z" id="rect57533-0-6"/>
<circle cx="13.24" cy="21.99" r="1.25"/>
<circle cx="53.41" cy="30.53" r="1.25"/>
<path d="M10.83,48.67h2.06a6.48,6.48,0,0,0,12.8,0h12a6.48,6.48,0,0,0,12.8,0h3.61A2.92,2.92,0,0,0,57,45.75V40.66a6.45,6.45,0,0,0-5.06-6.34v-.8a2.58,2.58,0,0,0-2.58-2.58H45l-2.32-4.73a8.71,8.71,0,0,0-4.6-4.4,2.6,2.6,0,0,0-2.54-2.07H25.22a9.41,9.41,0,0,0-4.87,1.37,11.85,11.85,0,0,0-4.07,4.21,2.57,2.57,0,0,0-.29,2,2.54,2.54,0,0,0,.43.91L12.9,34.1H10.83A3.84,3.84,0,0,0,7,37.93v6.9A3.84,3.84,0,0,0,10.83,48.67Zm2.64-8.77a1,1,0,0,0,1-1V35.38l3.67-6.15a2.67,2.67,0,0,0,1-.06A2.55,2.55,0,0,0,20.74,28,7,7,0,0,1,23,25.56c.16-.09.33-.18.49-.25v.5a6,6,0,0,0-2.38,2.41l-4.25,7.14a1,1,0,0,0,.86,1.51H31.56v4.31H9V39.9Zm18.09-6.22v1.19h-12l3.35-5.63a6,6,0,0,1,.66-.9v0a2.51,2.51,0,0,0,5,0V27a.51.51,0,0,1,.51-.51.51.51,0,0,1,.51.51v4.22A2.52,2.52,0,0,0,31.56,33.68Zm6.11,13h-12A6.47,6.47,0,0,0,24,43.18H39.4A6.47,6.47,0,0,0,37.67,46.67ZM33.56,33.21a2.49,2.49,0,0,0,1-2V27.4h1c.3,0,1,0,1.69,1.47l2.86,6H33.56ZM9,44.83V43.18h5.61a6.46,6.46,0,0,0-1.72,3.49H10.83A1.84,1.84,0,0,1,9,44.83Zm10.29,7.32a4.49,4.49,0,1,1,4.48-4.48A4.49,4.49,0,0,1,19.29,52.15Zm24.78,0a4.49,4.49,0,1,1,4.48-4.48A4.49,4.49,0,0,1,44.07,52.15Zm10-5.48H50.47a6.47,6.47,0,0,0-1.73-3.49H55v2.57A.92.92,0,0,1,54.08,46.67ZM46.94,36.1h1.42v1.57a.71.71,0,1,1-1.42,0Zm2.42-3.16a.57.57,0,0,1,.58.58v.58H46.56L46,32.94ZM40.9,27.09l4,8.24v2.34a2.71,2.71,0,1,0,5.42,0V36.13A4.53,4.53,0,0,1,55,40.66v.52H33.56V36.87h8.13a1,1,0,0,0,.85-.47,1,1,0,0,0,.05-1L39,28c-.82-1.73-2-2.61-3.49-2.61h-1v-.46h1a2.6,2.6,0,0,0,2.14-1.13A6.91,6.91,0,0,1,40.9,27.09ZM18,26.34a10.15,10.15,0,0,1,3.39-3.52,7.46,7.46,0,0,1,3.84-1.08H35.55a.59.59,0,0,1,.59.56.33.33,0,0,0,0,.1.6.6,0,0,1-.59.54h-2a1,1,0,0,0-1,1v7.28a.51.51,0,1,1-1,0V27a2.51,2.51,0,1,0-5,0v1.37a.51.51,0,0,1-1,0V24a1,1,0,0,0-.35-.76,1,1,0,0,0-.79-.23,6.15,6.15,0,0,0-2.38.85A8.9,8.9,0,0,0,19,27a.61.61,0,0,1-.83.21h0a.67.67,0,0,1-.27-.37A.61.61,0,0,1,18,26.34ZM10.83,36.1h1.64v1.8H9A1.84,1.84,0,0,1,10.83,36.1Z"/>
<path d="M44.07,44.72a2.95,2.95,0,1,0,3,3A2.95,2.95,0,0,0,44.07,44.72Zm0,3.89a.95.95,0,1,1,1-.94A.95.95,0,0,1,44.07,48.61Z"/>
<path d="M19.29,44.72a2.95,2.95,0,1,0,2.95,3A2.95,2.95,0,0,0,19.29,44.72Zm0,3.89a.95.95,0,1,1,.95-.94A.94.94,0,0,1,19.29,48.61Z"/>
<path d="M49.85,25.58l.3.18a1,1,0,0,0,1.37-.37A1,1,0,0,0,51.15,24l-.3-.18a1,1,0,0,0-1.37.37A1,1,0,0,0,49.85,25.58Z"/>
<path d="M46.31,21.23a1,1,0,0,0-1,1.73l.31.18a1,1,0,0,0,.5.13,1,1,0,0,0,.5-1.86Z"/>
<path d="M45.81,25.89a1,1,0,0,0,.49-.13l.31-.18A1,1,0,0,0,47,24.22a1,1,0,0,0-1.37-.37L45.3,24a1,1,0,0,0,.51,1.86Z"/>
<path d="M50.35,23.27a1,1,0,0,0,.5-.13l.3-.18a1,1,0,1,0-1-1.73l-.31.18a1,1,0,0,0-.36,1.36A1,1,0,0,0,50.35,23.27Z"/>
<path d="M48.23,24.94h0a1,1,0,0,0-1,1v.35a1,1,0,0,0,1,1h0a1,1,0,0,0,1-1v-.36A1,1,0,0,0,48.23,24.94Z"/>
<path d="M49.23,20.69a1,1,0,0,0-1-1h0a1,1,0,0,0-1,1v.35a1,1,0,0,0,1,1h0a1,1,0,0,0,1-1Z"/>
<path d="M23.17,15.74l.3.17a1,1,0,0,0,.5.14,1,1,0,0,0,.5-1.87L24.16,14a1,1,0,0,0-1,1.74Z"/>
<path d="M18.26,11.75a1,1,0,0,0,.36,1.36l.31.18a1,1,0,0,0,.5.13,1,1,0,0,0,.86-.5,1,1,0,0,0-.36-1.36l-.31-.18A1,1,0,0,0,18.26,11.75Z"/>
<path d="M19.12,16.05a1,1,0,0,0,.5-.14l.31-.17a1,1,0,0,0-1-1.74l-.31.18a1,1,0,0,0,.5,1.87Z"/>
<path d="M23.66,13.43a1,1,0,0,0,.5-.14l.31-.18a1,1,0,1,0-1-1.73l-.31.18a1,1,0,0,0-.36,1.36A1,1,0,0,0,23.66,13.43Z"/>
<path d="M21.55,15.09a1,1,0,0,0-1,1v.36a1,1,0,0,0,2,0v-.36A1,1,0,0,0,21.55,15.09Z"/>
<path d="M22.55,10.85a1,1,0,1,0-2,0v.35a1,1,0,0,0,2,0Z"/>
<circle cx="37.11" cy="13.83" r="1.25"/>
</g>
</svg>